<svg version="1.1" xmlns="http://www.w3.org/2000/svg" xmlns:xlink="http://www.w3.org/1999/xlink" width="796" height="804"><defs/><g><text fill="#eeeeee" stroke="none" font-family="Arial" font-size="24px" font-style="normal" font-weight="normal" text-decoration="none" x="0" y="0">UNREGISTERED</text><text fill="#eeeeee" stroke="none" font-family="Arial" font-size="24px" font-style="normal" font-weight="normal" text-decoration="none" x="0" y="30">UNREGISTERED</text><text fill="#eeeeee" stroke="none" font-family="Arial" font-size="24px" font-style="normal" font-weight="normal" text-decoration="none" x="0" y="60">UNREGISTERED</text><text fill="#eeeeee" stroke="none" font-family="Arial" font-size="24px" font-style="normal" font-weight="normal" text-decoration="none" x="0" y="90">UNREGISTERED</text><text fill="#eeeeee" stroke="none" font-family="Arial" font-size="24px" font-style="normal" font-weight="normal" text-decoration="none" x="0" y="120">UNREGISTERED</text><text fill="#eeeeee" stroke="none" font-family="Arial" font-size="24px" font-style="normal" font-weight="normal" text-decoration="none" x="0" y="150">UNREGISTERED</text><text fill="#eeeeee" stroke="none" font-family="Arial" font-size="24px" font-style="normal" font-weight="normal" text-decoration="none" x="0" y="180">UNREGISTERED</text><text fill="#eeeeee" stroke="none" font-family="Arial" font-size="24px" font-style="normal" font-weight="normal" text-decoration="none" x="0" y="210">UNREGISTERED</text><text fill="#eeeeee" stroke="none" font-family="Arial" font-size="24px" font-style="normal" font-weight="normal" text-decoration="none" x="0" y="240">UNREGISTERED</text><text fill="#eeeeee" stroke="none" font-family="Arial" font-size="24px" font-style="normal" font-weight="normal" text-decoration="none" x="0" y="270">UNREGISTERED</text><text fill="#eeeeee" stroke="none" font-family="Arial" font-size="24px" font-style="normal" font-weight="normal" text-decoration="none" x="0" y="300">UNREGISTERED</text><text fill="#eeeeee" stroke="none" font-family="Arial" font-size="24px" font-style="normal" font-weight="normal" text-decoration="none" x="0" y="330">UNREGISTERED</text><text fill="#eeeeee" stroke="none" font-family="Arial" font-size="24px" font-style="normal" font-weight="normal" text-decoration="none" x="0" y="360">UNREGISTERED</text><text fill="#eeeeee" stroke="none" font-family="Arial" font-size="24px" font-style="normal" font-weight="normal" text-decoration="none" x="0" y="390">UNREGISTERED</text><text fill="#eeeeee" stroke="none" font-family="Arial" font-size="24px" font-style="normal" font-weight="normal" text-decoration="none" x="0" y="420">UNREGISTERED</text><text fill="#eeeeee" stroke="none" font-family="Arial" font-size="24px" font-style="normal" font-weight="normal" text-decoration="none" x="0" y="450">UNREGISTERED</text><text fill="#eeeeee" stroke="none" font-family="Arial" font-size="24px" font-style="normal" font-weight="normal" text-decoration="none" x="0" y="480">UNREGISTERED</text><text fill="#eeeeee" stroke="none" font-family="Arial" font-size="24px" font-style="normal" font-weight="normal" text-decoration="none" x="0" y="510">UNREGISTERED</text><text fill="#eeeeee" stroke="none" font-family="Arial" font-size="24px" font-style="normal" font-weight="normal" text-decoration="none" x="0" y="540">UNREGISTERED</text><text fill="#eeeeee" stroke="none" font-family="Arial" font-size="24px" font-style="normal" font-weight="normal" text-decoration="none" x="0" y="570">UNREGISTERED</text><text fill="#eeeeee" stroke="none" font-family="Arial" font-size="24px" font-style="normal" font-weight="normal" text-decoration="none" x="0" y="600">UNREGISTERED</text><text fill="#eeeeee" stroke="none" font-family="Arial" font-size="24px" font-style="normal" font-weight="normal" text-decoration="none" x="0" y="630">UNREGISTERED</text><text fill="#eeeeee" stroke="none" font-family="Arial" font-size="24px" font-style="normal" font-weight="normal" text-decoration="none" x="0" y="660">UNREGISTERED</text><text fill="#eeeeee" stroke="none" font-family="Arial" font-size="24px" font-style="normal" font-weight="normal" text-decoration="none" x="0" y="690">UNREGISTERED</text><text fill="#eeeeee" stroke="none" font-family="Arial" font-size="24px" font-style="normal" font-weight="normal" text-decoration="none" x="0" y="720">UNREGISTERED</text><text fill="#eeeeee" stroke="none" font-family="Arial" font-size="24px" font-style="normal" font-weight="normal" text-decoration="none" x="0" y="750">UNREGISTERED</text><text fill="#eeeeee" stroke="none" font-family="Arial" font-size="24px" font-style="normal" font-weight="normal" text-decoration="none" x="0" y="780">UNREGISTERED</text><text fill="#eeeeee" stroke="none" font-family="Arial" font-size="24px" font-style="normal" font-weight="normal" text-decoration="none" x="200" y="0">UNREGISTERED</text><text fill="#eeeeee" stroke="none" font-family="Arial" font-size="24px" font-style="normal" font-weight="normal" text-decoration="none" x="200" y="30">UNREGISTERED</text><text fill="#eeeeee" stroke="none" font-family="Arial" font-size="24px" font-style="normal" font-weight="normal" text-decoration="none" x="200" y="60">UNREGISTERED</text><text fill="#eeeeee" stroke="none" font-family="Arial" font-size="24px" font-style="normal" font-weight="normal" text-decoration="none" x="200" y="90">UNREGISTERED</text><text fill="#eeeeee" stroke="none" font-family="Arial" font-size="24px" font-style="normal" font-weight="normal" text-decoration="none" x="200" y="120">UNREGISTERED</text><text fill="#eeeeee" stroke="none" font-family="Arial" font-size="24px" font-style="normal" font-weight="normal" text-decoration="none" x="200" y="150">UNREGISTERED</text><text fill="#eeeeee" stroke="none" font-family="Arial" font-size="24px" font-style="normal" font-weight="normal" text-decoration="none" x="200" y="180">UNREGISTERED</text><text fill="#eeeeee" stroke="none" font-family="Arial" font-size="24px" font-style="normal" font-weight="normal" text-decoration="none" x="200" y="210">UNREGISTERED</text><text fill="#eeeeee" stroke="none" font-family="Arial" font-size="24px" font-style="normal" font-weight="normal" text-decoration="none" x="200" y="240">UNREGISTERED</text><text fill="#eeeeee" stroke="none" font-family="Arial" font-size="24px" font-style="normal" font-weight="normal" text-decoration="none" x="200" y="270">UNREGISTERED</text><text fill="#eeeeee" stroke="none" font-family="Arial" font-size="24px" font-style="normal" font-weight="normal" text-decoration="none" x="200" y="300">UNREGISTERED</text><text fill="#eeeeee" stroke="none" font-family="Arial" font-size="24px" font-style="normal" font-weight="normal" text-decoration="none" x="200" y="330">UNREGISTERED</text><text fill="#eeeeee" stroke="none" font-family="Arial" font-size="24px" font-style="normal" font-weight="normal" text-decoration="none" x="200" y="360">UNREGISTERED</text><text fill="#eeeeee" stroke="none" font-family="Arial" font-size="24px" font-style="normal" font-weight="normal" text-decoration="none" x="200" y="390">UNREGISTERED</text><text fill="#eeeeee" stroke="none" font-family="Arial" font-size="24px" font-style="normal" font-weight="normal" text-decoration="none" x="200" y="420">UNREGISTERED</text><text fill="#eeeeee" stroke="none" font-family="Arial" font-size="24px" font-style="normal" font-weight="normal" text-decoration="none" x="200" y="450">UNREGISTERED</text><text fill="#eeeeee" stroke="none" font-family="Arial" font-size="24px" font-style="normal" font-weight="normal" text-decoration="none" x="200" y="480">UNREGISTERED</text><text fill="#eeeeee" stroke="none" font-family="Arial" font-size="24px" font-style="normal" font-weight="normal" text-decoration="none" x="200" y="510">UNREGISTERED</text><text fill="#eeeeee" stroke="none" font-family="Arial" font-size="24px" font-style="normal" font-weight="normal" text-decoration="none" x="200" y="540">UNREGISTERED</text><text fill="#eeeeee" stroke="none" font-family="Arial" font-size="24px" font-style="normal" font-weight="normal" text-decoration="none" x="200" y="570">UNREGISTERED</text><text fill="#eeeeee" stroke="none" font-family="Arial" font-size="24px" font-style="normal" font-weight="normal" text-decoration="none" x="200" y="600">UNREGISTERED</text><text fill="#eeeeee" stroke="none" font-family="Arial" font-size="24px" font-style="normal" font-weight="normal" text-decoration="none" x="200" y="630">UNREGISTERED</text><text fill="#eeeeee" stroke="none" font-family="Arial" font-size="24px" font-style="normal" font-weight="normal" text-decoration="none" x="200" y="660">UNREGISTERED</text><text fill="#eeeeee" stroke="none" font-family="Arial" font-size="24px" font-style="normal" font-weight="normal" text-decoration="none" x="200" y="690">UNREGISTERED</text><text fill="#eeeeee" stroke="none" font-family="Arial" font-size="24px" font-style="normal" font-weight="normal" text-decoration="none" x="200" y="720">UNREGISTERED</text><text fill="#eeeeee" stroke="none" font-family="Arial" font-size="24px" font-style="normal" font-weight="normal" text-decoration="none" x="200" y="750">UNREGISTERED</text><text fill="#eeeeee" stroke="none" font-family="Arial" font-size="24px" font-style="normal" font-weight="normal" text-decoration="none" x="200" y="780">UNREGISTERED</text><text fill="#eeeeee" stroke="none" font-family="Arial" font-size="24px" font-style="normal" font-weight="normal" text-decoration="none" x="400" y="0">UNREGISTERED</text><text fill="#eeeeee" stroke="none" font-family="Arial" font-size="24px" font-style="normal" font-weight="normal" text-decoration="none" x="400" y="30">UNREGISTERED</text><text fill="#eeeeee" stroke="none" font-family="Arial" font-size="24px" font-style="normal" font-weight="normal" text-decoration="none" x="400" y="60">UNREGISTERED</text><text fill="#eeeeee" stroke="none" font-family="Arial" font-size="24px" font-style="normal" font-weight="normal" text-decoration="none" x="400" y="90">UNREGISTERED</text><text fill="#eeeeee" stroke="none" font-family="Arial" font-size="24px" font-style="normal" font-weight="normal" text-decoration="none" x="400" y="120">UNREGISTERED</text><text fill="#eeeeee" stroke="none" font-family="Arial" font-size="24px" font-style="normal" font-weight="normal" text-decoration="none" x="400" y="150">UNREGISTERED</text><text fill="#eeeeee" stroke="none" font-family="Arial" font-size="24px" font-style="normal" font-weight="normal" text-decoration="none" x="400" y="180">UNREGISTERED</text><text fill="#eeeeee" stroke="none" font-family="Arial" font-size="24px" font-style="normal" font-weight="normal" text-decoration="none" x="400" y="210">UNREGISTERED</text><text fill="#eeeeee" stroke="none" font-family="Arial" font-size="24px" font-style="normal" font-weight="normal" text-decoration="none" x="400" y="240">UNREGISTERED</text><text fill="#eeeeee" stroke="none" font-family="Arial" font-size="24px" font-style="normal" font-weight="normal" text-decoration="none" x="400" y="270">UNREGISTERED</text><text fill="#eeeeee" stroke="none" font-family="Arial" font-size="24px" font-style="normal" font-weight="normal" text-decoration="none" x="400" y="300">UNREGISTERED</text><text fill="#eeeeee" stroke="none" font-family="Arial" font-size="24px" font-style="normal" font-weight="normal" text-decoration="none" x="400" y="330">UNREGISTERED</text><text fill="#eeeeee" stroke="none" font-family="Arial" font-size="24px" font-style="normal" font-weight="normal" text-decoration="none" x="400" y="360">UNREGISTERED</text><text fill="#eeeeee" stroke="none" font-family="Arial" font-size="24px" font-style="normal" font-weight="normal" text-decoration="none" x="400" y="390">UNREGISTERED</text><text fill="#eeeeee" stroke="none" font-family="Arial" font-size="24px" font-style="normal" font-weight="normal" text-decoration="none" x="400" y="420">UNREGISTERED</text><text fill="#eeeeee" stroke="none" font-family="Arial" font-size="24px" font-style="normal" font-weight="normal" text-decoration="none" x="400" y="450">UNREGISTERED</text><text fill="#eeeeee" stroke="none" font-family="Arial" font-size="24px" font-style="normal" font-weight="normal" text-decoration="none" x="400" y="480">UNREGISTERED</text><text fill="#eeeeee" stroke="none" font-family="Arial" font-size="24px" font-style="normal" font-weight="normal" text-decoration="none" x="400" y="510">UNREGISTERED</text><text fill="#eeeeee" stroke="none" font-family="Arial" font-size="24px" font-style="normal" font-weight="normal" text-decoration="none" x="400" y="540">UNREGISTERED</text><text fill="#eeeeee" stroke="none" font-family="Arial" font-size="24px" font-style="normal" font-weight="normal" text-decoration="none" x="400" y="570">UNREGISTERED</text><text fill="#eeeeee" stroke="none" font-family="Arial" font-size="24px" font-style="normal" font-weight="normal" text-decoration="none" x="400" y="600">UNREGISTERED</text><text fill="#eeeeee" stroke="none" font-family="Arial" font-size="24px" font-style="normal" font-weight="normal" text-decoration="none" x="400" y="630">UNREGISTERED</text><text fill="#eeeeee" stroke="none" font-family="Arial" font-size="24px" font-style="normal" font-weight="normal" text-decoration="none" x="400" y="660">UNREGISTERED</text><text fill="#eeeeee" stroke="none" font-family="Arial" font-size="24px" font-style="normal" font-weight="normal" text-decoration="none" x="400" y="690">UNREGISTERED</text><text fill="#eeeeee" stroke="none" font-family="Arial" font-size="24px" font-style="normal" font-weight="normal" text-decoration="none" x="400" y="720">UNREGISTERED</text><text fill="#eeeeee" stroke="none" font-family="Arial" font-size="24px" font-style="normal" font-weight="normal" text-decoration="none" x="400" y="750">UNREGISTERED</text><text fill="#eeeeee" stroke="none" font-family="Arial" font-size="24px" font-style="normal" font-weight="normal" text-decoration="none" x="400" y="780">UNREGISTERED</text><text fill="#eeeeee" stroke="none" font-family="Arial" font-size="24px" font-style="normal" font-weight="normal" text-decoration="none" x="600" y="0">UNREGISTERED</text><text fill="#eeeeee" stroke="none" font-family="Arial" font-size="24px" font-style="normal" font-weight="normal" text-decoration="none" x="600" y="30">UNREGISTERED</text><text fill="#eeeeee" stroke="none" font-family="Arial" font-size="24px" font-style="normal" font-weight="normal" text-decoration="none" x="600" y="60">UNREGISTERED</text><text fill="#eeeeee" stroke="none" font-family="Arial" font-size="24px" font-style="normal" font-weight="normal" text-decoration="none" x="600" y="90">UNREGISTERED</text><text fill="#eeeeee" stroke="none" font-family="Arial" font-size="24px" font-style="normal" font-weight="normal" text-decoration="none" x="600" y="120">UNREGISTERED</text><text fill="#eeeeee" stroke="none" font-family="Arial" font-size="24px" font-style="normal" font-weight="normal" text-decoration="none" x="600" y="150">UNREGISTERED</text><text fill="#eeeeee" stroke="none" font-family="Arial" font-size="24px" font-style="normal" font-weight="normal" text-decoration="none" x="600" y="180">UNREGISTERED</text><text fill="#eeeeee" stroke="none" font-family="Arial" font-size="24px" font-style="normal" font-weight="normal" text-decoration="none" x="600" y="210">UNREGISTERED</text><text fill="#eeeeee" stroke="none" font-family="Arial" font-size="24px" font-style="normal" font-weight="normal" text-decoration="none" x="600" y="240">UNREGISTERED</text><text fill="#eeeeee" stroke="none" font-family="Arial" font-size="24px" font-style="normal" font-weight="normal" text-decoration="none" x="600" y="270">UNREGISTERED</text><text fill="#eeeeee" stroke="none" font-family="Arial" font-size="24px" font-style="normal" font-weight="normal" text-decoration="none" x="600" y="300">UNREGISTERED</text><text fill="#eeeeee" stroke="none" font-family="Arial" font-size="24px" font-style="normal" font-weight="normal" text-decoration="none" x="600" y="330">UNREGISTERED</text><text fill="#eeeeee" stroke="none" font-family="Arial" font-size="24px" font-style="normal" font-weight="normal" text-decoration="none" x="600" y="360">UNREGISTERED</text><text fill="#eeeeee" stroke="none" font-family="Arial" font-size="24px" font-style="normal" font-weight="normal" text-decoration="none" x="600" y="390">UNREGISTERED</text><text fill="#eeeeee" stroke="none" font-family="Arial" font-size="24px" font-style="normal" font-weight="normal" text-decoration="none" x="600" y="420">UNREGISTERED</text><text fill="#eeeeee" stroke="none" font-family="Arial" font-size="24px" font-style="normal" font-weight="normal" text-decoration="none" x="600" y="450">UNREGISTERED</text><text fill="#eeeeee" stroke="none" font-family="Arial" font-size="24px" font-style="normal" font-weight="normal" text-decoration="none" x="600" y="480">UNREGISTERED</text><text fill="#eeeeee" stroke="none" font-family="Arial" font-size="24px" font-style="normal" font-weight="normal" text-decoration="none" x="600" y="510">UNREGISTERED</text><text fill="#eeeeee" stroke="none" font-family="Arial" font-size="24px" font-style="normal" font-weight="normal" text-decoration="none" x="600" y="540">UNREGISTERED</text><text fill="#eeeeee" stroke="none" font-family="Arial" font-size="24px" font-style="normal" font-weight="normal" text-decoration="none" x="600" y="570">UNREGISTERED</text><text fill="#eeeeee" stroke="none" font-family="Arial" font-size="24px" font-style="normal" font-weight="normal" text-decoration="none" x="600" y="600">UNREGISTERED</text><text fill="#eeeeee" stroke="none" font-family="Arial" font-size="24px" font-style="normal" font-weight="normal" text-decoration="none" x="600" y="630">UNREGISTERED</text><text fill="#eeeeee" stroke="none" font-family="Arial" font-size="24px" font-style="normal" font-weight="normal" text-decoration="none" x="600" y="660">UNREGISTERED</text><text fill="#eeeeee" stroke="none" font-family="Arial" font-size="24px" font-style="normal" font-weight="normal" text-decoration="none" x="600" y="690">UNREGISTERED</text><text fill="#eeeeee" stroke="none" font-family="Arial" font-size="24px" font-style="normal" font-weight="normal" text-decoration="none" x="600" y="720">UNREGISTERED</text><text fill="#eeeeee" stroke="none" font-family="Arial" font-size="24px" font-style="normal" font-weight="normal" text-decoration="none" x="600" y="750">UNREGISTERED</text><text fill="#eeeeee" stroke="none" font-family="Arial" font-size="24px" font-style="normal" font-weight="normal" text-decoration="none" x="600" y="780">UNREGISTERED</text><g transform="translate(-134,-134) scale(1,1)"><rect fill="#C0C0C0" stroke="none" x="351" y="151" width="576" height="784" opacity="0.2"/></g><g transform="translate(-134,-134) scale(1,1)"><rect fill="#ffffff" stroke="none" x="344" y="144" width="576" height="784"/></g><g transform="translate(-134,-134) scale(1,1)"><path fill="none" stroke="#000000" d="M 344 144 L 920 144 L 920 928 L 344 928 L 344 144 Z Z" stroke-miterlimit="10"/></g><g transform="translate(-134,-134) scale(1,1)"><g><path fill="none" stroke="none"/><text fill="#000000" stroke="none" font-family="Arial" font-size="13px" font-style="normal" font-weight="bold" text-decoration="none" x="600.201416015625" y="163.5">Application</text></g></g><g transform="translate(-134,-134) scale(1,1)"><path fill="#ffffff" stroke="none" d="M 249.49162571022728 817.6800000000001 C 249.49162571022728 812.8861679360001 253.3774680351727 809 258.1708984375 809 C 262.96432883982726 809 266.85017116477275 812.8861679360001 266.85017116477275 817.6800000000001 C 266.85017116477275 822.473832064 262.96432883982726 826.36 258.1708984375 826.36 C 253.3774680351727 826.36 249.49162571022728 822.473832064 249.49162571022728 817.6800000000001 Z"/></g><g transform="translate(-134,-134) scale(1,1)"><path fill="none" stroke="#000000" d="M 249.49162571022728 817.6800000000001 C 249.49162571022728 812.8861679360001 253.3774680351727 809 258.1708984375 809 C 262.96432883982726 809 266.85017116477275 812.8861679360001 266.85017116477275 817.6800000000001 C 266.85017116477275 822.473832064 262.96432883982726 826.36 258.1708984375 826.36 C 253.3774680351727 826.36 249.49162571022728 822.473832064 249.49162571022728 817.6800000000001 Z" stroke-miterlimit="10"/></g><g transform="translate(-134,-134) scale(1,1)"><path fill="none" stroke="#000000" d="M 258.1708984375 826.36 L 258.1708984375 843.64" stroke-miterlimit="10"/></g><g transform="translate(-134,-134) scale(1,1)"><path fill="none" stroke="#000000" d="M 248.98108025568183 832.84 L 267.36071661931817 832.84" stroke-miterlimit="10"/></g><g transform="translate(-134,-134) scale(1,1)"><path fill="none" stroke="#000000" d="M 258.1708984375 843.64 L 245.40726207386365 861" stroke-miterlimit="10"/></g><g transform="translate(-134,-134) scale(1,1)"><path fill="none" stroke="#000000" d="M 258.1708984375 843.64 L 270.93453480113635 861" stroke-miterlimit="10"/></g><g transform="translate(-134,-134) scale(1,1)"><g><path fill="none" stroke="none"/><text fill="#000000" stroke="none" font-family="Arial" font-size="13px" font-style="normal" font-weight="bold" text-decoration="none" x="238.29638671875" y="881.5">Joueur</text></g></g><g transform="translate(-134,-134) scale(1,1)"><path fill="#ffffff" stroke="none" d="M 263.93571750710225 201.68 C 263.93571750710225 196.886167936 267.82155983204774 193 272.614990234375 193 C 277.40842063670226 193 281.29426296164775 196.886167936 281.29426296164775 201.68 C 281.29426296164775 206.47383206400002 277.40842063670226 210.36 272.614990234375 210.36 C 267.82155983204774 210.36 263.93571750710225 206.47383206400002 263.93571750710225 201.68 Z"/></g><g transform="translate(-134,-134) scale(1,1)"><path fill="none" stroke="#000000" d="M 263.93571750710225 201.68 C 263.93571750710225 196.886167936 267.82155983204774 193 272.614990234375 193 C 277.40842063670226 193 281.29426296164775 196.886167936 281.29426296164775 201.68 C 281.29426296164775 206.47383206400002 277.40842063670226 210.36 272.614990234375 210.36 C 267.82155983204774 210.36 263.93571750710225 206.47383206400002 263.93571750710225 201.68 Z" stroke-miterlimit="10"/></g><g transform="translate(-134,-134) scale(1,1)"><path fill="none" stroke="#000000" d="M 272.614990234375 210.36 L 272.614990234375 227.64" stroke-miterlimit="10"/></g><g transform="translate(-134,-134) scale(1,1)"><path fill="none" stroke="#000000" d="M 263.42517205255683 216.84 L 281.80480841619317 216.84" stroke-miterlimit="10"/></g><g transform="translate(-134,-134) scale(1,1)"><path fill="none" stroke="#000000" d="M 272.614990234375 227.64 L 259.85135387073865 245" stroke-miterlimit="10"/></g><g transform="translate(-134,-134) scale(1,1)"><path fill="none" stroke="#000000" d="M 272.614990234375 227.64 L 285.37862659801135 245" stroke-miterlimit="10"/></g><g transform="translate(-134,-134) scale(1,1)"><g><path fill="none" stroke="none"/><text fill="#000000" stroke="none" font-family="Arial" font-size="13px" font-style="normal" font-weight="bold" text-decoration="none" x="239.010498046875" y="265.5">Concepteur</text></g></g><g transform="translate(-134,-134) scale(1,1)"><path fill="#C0C0C0" stroke="none" d="M 558 239 C 558 221.3268864 593.817216 207 638 207 C 682.182784 207 718 221.3268864 718 239 C 718 256.6731136 682.182784 271 638 271 C 593.817216 271 558 256.6731136 558 239 Z" opacity="0.2"/></g><g transform="translate(-134,-134) scale(1,1)"><path fill="#ffffff" stroke="none" d="M 551 232 C 551 214.3268864 586.817216 200 631 200 C 675.182784 200 711 214.3268864 711 232 C 711 249.6731136 675.182784 264 631 264 C 586.817216 264 551 249.6731136 551 232 Z"/></g><g transform="translate(-134,-134) scale(1,1)"><path fill="none" stroke="#000000" d="M 551 232 C 551 214.3268864 586.817216 200 631 200 C 675.182784 200 711 214.3268864 711 232 C 711 249.6731136 675.182784 264 631 264 C 586.817216 264 551 249.6731136 551 232 Z" stroke-miterlimit="10"/></g><g transform="translate(-134,-134) scale(1,1)"><g><path fill="none" stroke="none"/><text fill="#000000" stroke="none" font-family="Arial" font-size="13px" font-style="normal" font-weight="bold" text-decoration="none" x="593.07275390625" y="239">CreerUnQuiz</text></g></g><g transform="translate(-134,-134) scale(1,1)"><path fill="#C0C0C0" stroke="none" d="M 546 856 C 546 842.19288 587.413656 831 638.5 831 C 689.586344 831 731 842.19288 731 856 C 731 869.80712 689.586344 881 638.5 881 C 587.413656 881 546 869.80712 546 856 Z" opacity="0.2"/></g><g transform="translate(-134,-134) scale(1,1)"><path fill="#ffffff" stroke="none" d="M 539 849 C 539 835.19288 580.413656 824 631.5 824 C 682.586344 824 724 835.19288 724 849 C 724 862.80712 682.586344 874 631.5 874 C 580.413656 874 539 862.80712 539 849 Z"/></g><g transform="translate(-134,-134) scale(1,1)"><path fill="none" stroke="#000000" d="M 539 849 C 539 835.19288 580.413656 824 631.5 824 C 682.586344 824 724 835.19288 724 849 C 724 862.80712 682.586344 874 631.5 874 C 580.413656 874 539 862.80712 539 849 Z" stroke-miterlimit="10"/></g><g transform="translate(-134,-134) scale(1,1)"><g><path fill="none" stroke="none"/><text fill="#000000" stroke="none" font-family="Arial" font-size="13px" font-style="normal" font-weight="bold" text-decoration="none" x="576.94189453125" y="856">RepondreAUnQuiz</text></g></g><g transform="translate(-134,-134) scale(1,1)"><path fill="#C0C0C0" stroke="none" d="M 521 576 C 521 566.6111584 573.606536 559 638.5 559 C 703.393464 559 756 566.6111584 756 576 C 756 585.3888416 703.393464 593 638.5 593 C 573.606536 593 521 585.3888416 521 576 Z" opacity="0.2"/></g><g transform="translate(-134,-134) scale(1,1)"><path fill="#ffffff" stroke="none" d="M 514 569 C 514 559.6111584 566.606536 552 631.5 552 C 696.393464 552 749 559.6111584 749 569 C 749 578.3888416 696.393464 586 631.5 586 C 566.606536 586 514 578.3888416 514 569 Z"/></g><g transform="translate(-134,-134) scale(1,1)"><path fill="none" stroke="#000000" d="M 514 569 C 514 559.6111584 566.606536 552 631.5 552 C 696.393464 552 749 559.6111584 749 569 C 749 578.3888416 696.393464 586 631.5 586 C 566.606536 586 514 578.3888416 514 569 Z" stroke-miterlimit="10"/></g><g transform="translate(-134,-134) scale(1,1)"><g><path fill="none" stroke="none"/><text fill="#000000" stroke="none" font-family="Arial" font-size="13px" font-style="normal" font-weight="bold" text-decoration="none" x="558.879638671875" y="576">ConsulterSesStatistiques</text></g></g><g transform="translate(-134,-134) scale(1,1)"><path fill="#C0C0C0" stroke="none" d="M 567 416 C 567 406.6111584 595.6537728 399 631 399 C 666.3462272 399 695 406.6111584 695 416 C 695 425.3888416 666.3462272 433 631 433 C 595.6537728 433 567 425.3888416 567 416 Z" opacity="0.2"/></g><g transform="translate(-134,-134) scale(1,1)"><path fill="#ffffff" stroke="none" d="M 560 409 C 560 399.6111584 588.6537728 392 624 392 C 659.3462272 392 688 399.6111584 688 409 C 688 418.3888416 659.3462272 426 624 426 C 588.6537728 426 560 418.3888416 560 409 Z"/></g><g transform="translate(-134,-134) scale(1,1)"><path fill="none" stroke="#000000" d="M 560 409 C 560 399.6111584 588.6537728 392 624 392 C 659.3462272 392 688 399.6111584 688 409 C 688 418.3888416 659.3462272 426 624 426 C 588.6537728 426 560 418.3888416 560 409 Z" stroke-miterlimit="10"/></g><g transform="translate(-134,-134) scale(1,1)"><g><path fill="none" stroke="none"/><text fill="#000000" stroke="none" font-family="Arial" font-size="13px" font-style="normal" font-weight="bold" text-decoration="none" x="585.6982421875" y="416">Se connecter</text></g></g><g transform="translate(-134,-134) scale(1,1)"><path fill="#ffffff" stroke="none" d="M 252.84294406960228 625.6800000000001 C 252.84294406960228 620.8861679360001 256.72878639454774 617 261.522216796875 617 C 266.31564719920226 617 270.20148952414775 620.8861679360001 270.20148952414775 625.6800000000001 C 270.20148952414775 630.473832064 266.31564719920226 634.36 261.522216796875 634.36 C 256.72878639454774 634.36 252.84294406960228 630.473832064 252.84294406960228 625.6800000000001 Z"/></g><g transform="translate(-134,-134) scale(1,1)"><path fill="none" stroke="#000000" d="M 252.84294406960228 625.6800000000001 C 252.84294406960228 620.8861679360001 256.72878639454774 617 261.522216796875 617 C 266.31564719920226 617 270.20148952414775 620.8861679360001 270.20148952414775 625.6800000000001 C 270.20148952414775 630.473832064 266.31564719920226 634.36 261.522216796875 634.36 C 256.72878639454774 634.36 252.84294406960228 630.473832064 252.84294406960228 625.6800000000001 Z" stroke-miterlimit="10"/></g><g transform="translate(-134,-134) scale(1,1)"><path fill="none" stroke="#000000" d="M 261.522216796875 634.36 L 261.522216796875 651.64" stroke-miterlimit="10"/></g><g transform="translate(-134,-134) scale(1,1)"><path fill="none" stroke="#000000" d="M 252.33239861505683 640.84 L 270.71203497869317 640.84" stroke-miterlimit="10"/></g><g transform="translate(-134,-134) scale(1,1)"><path fill="none" stroke="#000000" d="M 261.522216796875 651.64 L 248.75858043323865 669" stroke-miterlimit="10"/></g><g transform="translate(-134,-134) scale(1,1)"><path fill="none" stroke="#000000" d="M 261.522216796875 651.64 L 274.28585316051135 669" stroke-miterlimit="10"/></g><g transform="translate(-134,-134) scale(1,1)"><g><path fill="none" stroke="none"/><text fill="#000000" stroke="none" font-family="Arial" font-size="13px" font-style="normal" font-weight="bold" text-decoration="none" x="203" y="689.5">UtilisateurEnregistre</text></g></g><g transform="translate(-134,-134) scale(1,1)"><path fill="none" stroke="#000000" d="M 259 807 L 260 696" stroke-miterlimit="10"/></g><g transform="translate(-134,-134) scale(1,1)"><path fill="#FFFFFF" stroke="none" d="M 268.23559005063527 716.4003690289632 L 260 696 L 251.39820229278882 716.2486808509645"/></g><g transform="translate(-134,-134) scale(1,1)"><path fill="none" stroke="#000000" d="M 268.23559005063527 716.4003690289632 L 260 696 L 251.39820229278882 716.2486808509645 L 268.23559005063527 716.4003690289632" stroke-miterlimit="10"/></g><g transform="translate(-134,-134) scale(1,1)"><path fill="none" stroke="#000000" d="M 332 638 L 554 587" stroke-miterlimit="10"/></g><g transform="translate(-134,-134) scale(1,1)"><path fill="none" stroke="#000000" d="M 285 847 L 538 849" stroke-miterlimit="10"/></g><g transform="translate(-134,-134) scale(1,1)"><path fill="#ffffff" stroke="none" d="M 255.22160617897728 425.68 C 255.22160617897728 420.886167936 259.10744850392274 417 263.90087890625 417 C 268.69430930857726 417 272.58015163352275 420.886167936 272.58015163352275 425.68 C 272.58015163352275 430.473832064 268.69430930857726 434.36 263.90087890625 434.36 C 259.10744850392274 434.36 255.22160617897728 430.473832064 255.22160617897728 425.68 Z"/></g><g transform="translate(-134,-134) scale(1,1)"><path fill="none" stroke="#000000" d="M 255.22160617897728 425.68 C 255.22160617897728 420.886167936 259.10744850392274 417 263.90087890625 417 C 268.69430930857726 417 272.58015163352275 420.886167936 272.58015163352275 425.68 C 272.58015163352275 430.473832064 268.69430930857726 434.36 263.90087890625 434.36 C 259.10744850392274 434.36 255.22160617897728 430.473832064 255.22160617897728 425.68 Z" stroke-miterlimit="10"/></g><g transform="translate(-134,-134) scale(1,1)"><path fill="none" stroke="#000000" d="M 263.90087890625 434.36 L 263.90087890625 451.64" stroke-miterlimit="10"/></g><g transform="translate(-134,-134) scale(1,1)"><path fill="none" stroke="#000000" d="M 254.71106072443183 440.84 L 273.09069708806817 440.84" stroke-miterlimit="10"/></g><g transform="translate(-134,-134) scale(1,1)"><path fill="none" stroke="#000000" d="M 263.90087890625 451.64 L 251.13724254261365 469" stroke-miterlimit="10"/></g><g transform="translate(-134,-134) scale(1,1)"><path fill="none" stroke="#000000" d="M 263.90087890625 451.64 L 276.66451526988635 469" stroke-miterlimit="10"/></g><g transform="translate(-134,-134) scale(1,1)"><g><path fill="none" stroke="none"/><text fill="#000000" stroke="none" font-family="Arial" font-size="13px" font-style="normal" font-weight="bold" text-decoration="none" x="235.003173828125" y="489.5">Utilisateur</text></g></g><g transform="translate(-134,-134) scale(1,1)"><path fill="none" stroke="#000000" d="M 261 615 L 263 496" stroke-miterlimit="10"/></g><g transform="translate(-134,-134) scale(1,1)"><path fill="#FFFFFF" stroke="none" d="M 271.0762924376286 516.4639561292997 L 263 496 L 254.24059900056093 516.1810032984247"/></g><g transform="translate(-134,-134) scale(1,1)"><path fill="none" stroke="#000000" d="M 271.0762924376286 516.4639561292997 L 263 496 L 254.24059900056093 516.1810032984247 L 271.0762924376286 516.4639561292997" stroke-miterlimit="10"/></g><g transform="translate(-134,-134) scale(1,1)"><path fill="none" stroke="#000000" d="M 246 272 L 144 432 L 240 615" stroke-miterlimit="10"/></g><g transform="translate(-134,-134) scale(1,1)"><path fill="#FFFFFF" stroke="none" d="M 223.10241817673452 600.9120005491891 L 240 615 L 238.01332525213513 593.0898853620937"/></g><g transform="translate(-134,-134) scale(1,1)"><path fill="none" stroke="#000000" d="M 223.10241817673452 600.9120005491891 L 240 615 L 238.01332525213513 593.0898853620937 L 223.10241817673452 600.9120005491891" stroke-miterlimit="10"/></g><g transform="translate(-134,-134) scale(1,1)"><path fill="none" stroke="#000000" d="M 314 231 L 550 232" stroke-miterlimit="10"/></g><g transform="translate(-134,-134) scale(1,1)"><path fill="none" stroke="#000000" d="M 305 450 L 559 417" stroke-miterlimit="10"/></g><g transform="translate(-134,-134) scale(1,1)"><path fill="#C0C0C0" stroke="none" d="M 565 616 C 565 606.6111584 597.6832096 599 638 599 C 678.3167904 599 711 606.6111584 711 616 C 711 625.3888416 678.3167904 633 638 633 C 597.6832096 633 565 625.3888416 565 616 Z" opacity="0.2"/></g><g transform="translate(-134,-134) scale(1,1)"><path fill="#ffffff" stroke="none" d="M 558 609 C 558 599.6111584 590.6832096 592 631 592 C 671.3167904 592 704 599.6111584 704 609 C 704 618.3888416 671.3167904 626 631 626 C 590.6832096 626 558 618.3888416 558 609 Z"/></g><g transform="translate(-134,-134) scale(1,1)"><path fill="none" stroke="#000000" d="M 558 609 C 558 599.6111584 590.6832096 592 631 592 C 671.3167904 592 704 599.6111584 704 609 C 704 618.3888416 671.3167904 626 631 626 C 590.6832096 626 558 618.3888416 558 609 Z" stroke-miterlimit="10"/></g><g transform="translate(-134,-134) scale(1,1)"><g><path fill="none" stroke="none"/><text fill="#000000" stroke="none" font-family="Arial" font-size="13px" font-style="normal" font-weight="bold" text-decoration="none" x="586.195068359375" y="616">SeDeconnecter</text></g></g><g transform="translate(-134,-134) scale(1,1)"><path fill="#C0C0C0" stroke="none" d="M 588 512 C 588 502.6111584 610.6096176 495 638.5 495 C 666.3903824 495 689 502.6111584 689 512 C 689 521.3888416 666.3903824 529 638.5 529 C 610.6096176 529 588 521.3888416 588 512 Z" opacity="0.2"/></g><g transform="translate(-134,-134) scale(1,1)"><path fill="#ffffff" stroke="none" d="M 581 505 C 581 495.6111584 603.6096176 488 631.5 488 C 659.3903824 488 682 495.6111584 682 505 C 682 514.3888416 659.3903824 522 631.5 522 C 603.6096176 522 581 514.3888416 581 505 Z"/></g><g transform="translate(-134,-134) scale(1,1)"><path fill="none" stroke="#000000" d="M 581 505 C 581 495.6111584 603.6096176 488 631.5 488 C 659.3903824 488 682 495.6111584 682 505 C 682 514.3888416 659.3903824 522 631.5 522 C 603.6096176 522 581 514.3888416 581 505 Z" stroke-miterlimit="10"/></g><g transform="translate(-134,-134) scale(1,1)"><g><path fill="none" stroke="none"/><text fill="#000000" stroke="none" font-family="Arial" font-size="13px" font-style="normal" font-weight="bold" text-decoration="none" x="604.976318359375" y="512">S'inscrire</text></g></g><g transform="translate(-134,-134) scale(1,1)"><path fill="none" stroke="#000000" d="M 580 498 L 305 461" stroke-miterlimit="10"/></g><g transform="translate(-134,-134) scale(1,1)"><path fill="none" stroke="#000000" d="M 557 618 L 332 646" stroke-miterlimit="10"/></g><g transform="translate(-134,-134) scale(1,1)"><path fill="#C0C0C0" stroke="none" d="M 506 656 C 506 646.6111584 565.0984064 639 638 639 C 710.9015936 639 770 646.6111584 770 656 C 770 665.3888416 710.9015936 673 638 673 C 565.0984064 673 506 665.3888416 506 656 Z" opacity="0.2"/></g><g transform="translate(-134,-134) scale(1,1)"><path fill="#ffffff" stroke="none" d="M 499 649 C 499 639.6111584 558.0984064 632 631 632 C 703.9015936 632 763 639.6111584 763 649 C 763 658.3888416 703.9015936 666 631 666 C 558.0984064 666 499 658.3888416 499 649 Z"/></g><g transform="translate(-134,-134) scale(1,1)"><path fill="none" stroke="#000000" d="M 499 649 C 499 639.6111584 558.0984064 632 631 632 C 703.9015936 632 763 639.6111584 763 649 C 763 658.3888416 703.9015936 666 631 666 C 558.0984064 666 499 658.3888416 499 649 Z" stroke-miterlimit="10"/></g><g transform="translate(-134,-134) scale(1,1)"><g><path fill="none" stroke="none"/><text fill="#000000" stroke="none" font-family="Arial" font-size="13px" font-style="normal" font-weight="bold" text-decoration="none" x="549.3564453125" y="656">ModifierInformationsCompte</text></g></g><g transform="translate(-134,-134) scale(1,1)"><path fill="#C0C0C0" stroke="none" d="M 505 696 C 505 686.6111584 564.5461216 679 638 679 C 711.4538784 679 771 686.6111584 771 696 C 771 705.3888416 711.4538784 713 638 713 C 564.5461216 713 505 705.3888416 505 696 Z" opacity="0.2"/></g><g transform="translate(-134,-134) scale(1,1)"><path fill="#ffffff" stroke="none" d="M 498 689 C 498 679.6111584 557.5461216 672 631 672 C 704.4538784 672 764 679.6111584 764 689 C 764 698.3888416 704.4538784 706 631 706 C 557.5461216 706 498 698.3888416 498 689 Z"/></g><g transform="translate(-134,-134) scale(1,1)"><path fill="none" stroke="#000000" d="M 498 689 C 498 679.6111584 557.5461216 672 631 672 C 704.4538784 672 764 679.6111584 764 689 C 764 698.3888416 704.4538784 706 631 706 C 557.5461216 706 498 698.3888416 498 689 Z" stroke-miterlimit="10"/></g><g transform="translate(-134,-134) scale(1,1)"><g><path fill="none" stroke="none"/><text fill="#000000" stroke="none" font-family="Arial" font-size="13px" font-style="normal" font-weight="bold" text-decoration="none" x="548.6201171875" y="696">ModifierReglagesApplication</text></g></g><g transform="translate(-134,-134) scale(1,1)"><path fill="none" stroke="#000000" d="M 332 654 L 498 651" stroke-miterlimit="10"/></g><g transform="translate(-134,-134) scale(1,1)"><path fill="none" stroke="#000000" d="M 332 662 L 497 677" stroke-miterlimit="10"/></g><g transform="translate(-134,-134) scale(1,1)"><path fill="#C0C0C0" stroke="none" d="M 553 752 C 553 742.6111584 591.2796496 735 638.5 735 C 685.7203504 735 724 742.6111584 724 752 C 724 761.3888416 685.7203504 769 638.5 769 C 591.2796496 769 553 761.3888416 553 752 Z" opacity="0.2"/></g><g transform="translate(-134,-134) scale(1,1)"><path fill="#ffffff" stroke="none" d="M 546 745 C 546 735.6111584 584.2796496 728 631.5 728 C 678.7203504 728 717 735.6111584 717 745 C 717 754.3888416 678.7203504 762 631.5 762 C 584.2796496 762 546 754.3888416 546 745 Z"/></g><g transform="translate(-134,-134) scale(1,1)"><path fill="none" stroke="#000000" d="M 546 745 C 546 735.6111584 584.2796496 728 631.5 728 C 678.7203504 728 717 735.6111584 717 745 C 717 754.3888416 678.7203504 762 631.5 762 C 584.2796496 762 546 754.3888416 546 745 Z" stroke-miterlimit="10"/></g><g transform="translate(-134,-134) scale(1,1)"><g><path fill="none" stroke="none"/><text fill="#000000" stroke="none" font-family="Arial" font-size="13px" font-style="normal" font-weight="bold" text-decoration="none" x="579.115966796875" y="752">ConsulterSesQuiz</text></g></g><g transform="translate(-134,-134) scale(1,1)"><path fill="none" stroke="#000000" d="M 332 672 L 557 727" stroke-miterlimit="10"/></g></g></svg>